<?xml version="1.0" encoding="utf-8"?>
<!-- Generator: Adobe Illustrator 18.1.1, SVG Export Plug-In . SVG Version: 6.00 Build 0)  -->
<!DOCTYPE svg PUBLIC "-//W3C//DTD SVG 1.1//EN" "http://www.w3.org/Graphics/SVG/1.1/DTD/svg11.dtd">
<svg version="1.1" id="Layer_1" xmlns="http://www.w3.org/2000/svg" xmlns:xlink="http://www.w3.org/1999/xlink" x="0px" y="0px"
	 width="256px" height="256px" viewBox="0 0 256 256" style="enable-background:new 0 0 256 256;" xml:space="preserve">
<style type="text/css">
	.st0{fill:#3B3A33;}
</style>
<g>
	<path class="st0" d="M42.2,107.3l0.3-0.3c0.4-1.5,1.1-6.6-3.9-11.3c-4.9-4.7-10.7-4.9-12.5-4.8L26.1,91c0,1.7,0.3,7.4,5,12.3
		C35.8,108.2,40.7,107.7,42.2,107.3z"/>
	<path class="st0" d="M140.8,166.5c3.4-3.5,3.6-7.6,3.6-8.9l0,0c-1.3-0.1-5.5,0.1-9,3.5c-0.6,0.6-1.2,1.3-1.6,1.9v-13.3
		c3,2.6,6.9,4.2,11.2,4.2h45.9c6,0,11.4-3.1,14.4-7.9h10c9.4,0,17.1-7.7,17.1-17.1v-15.9c1.6,0.1,4.3-0.3,7-3.1
		c3.4-3.5,3.6-7.7,3.6-8.9l0,0c-1.3-0.1-5.5,0.1-9,3.5c-0.6,0.6-1.1,1.2-1.5,1.8v-1c0-1.6-1.3-3-3-3c-1.6,0-3,1.3-3,3v12.2
		c-0.1-0.1-0.2-0.2-0.2-0.2c-3.6-3.4-7.8-3.5-9-3.5l0,0.1c0,1.3,0.2,5.4,3.6,8.9c2.1,2.1,4.1,2.8,5.7,3v3.1c0,6.2-5,11.2-11.2,11.2
		h-7.6c0.2-0.9,0.3-1.7,0.3-2.7c0.2-1.3,0.3-4.2-2.6-7c-3.2-3.1-7-3.2-8.1-3.1l0,0c0,1.1,0.2,4.8,3.2,8c0.5,0.6,1.1,1,1.6,1.4
		c0,0,0,0,0,0c0,6.2-5,11.2-11.2,11.2h-10.8c2.6-3,4.2-6.9,4.2-11.2v-22.5c2.1,0.2,6.2,0,10.2-4.2c4.7-4.9,5-10.6,5-12.3l-0.1-0.1
		c-1.7-0.1-7.6,0.1-12.5,4.8c-1.2,1.1-2,2.3-2.6,3.4v-17c0-0.1,0-0.3,0-0.4c0,0,0-0.2,0-0.4c1.1,0.2,4.2,0.4,7.1-2.7
		c3.1-3.2,3.3-6.9,3.2-8l0,0c-1.1,0-4.9,0.1-8.1,3.1c-1,0.9-1.6,1.9-2,2.8c0.3-2.2,1.1-4.8,2.9-6.8c2.3-2.6,5.9-4,10.7-4
		c1.6,0,3-1.3,3-3s-1.3-3-3-3c-6.6,0-11.8,2-15.2,6c-5.3,6.2-4.6,14.9-4.4,16.5v8c-0.6-1.4-1.6-2.9-3.1-4.4
		c-4.9-4.7-10.7-4.9-12.5-4.8l-0.1,0.1c0,1.7,0.3,7.4,5,12.3c4.4,4.5,8.8,4.4,10.7,4.1v16.3c-0.7-1.2-1.7-2.3-2.9-3.5
		c-6.1-5.9-13.3-6.1-15.5-6l-0.1,0.1c0,2.1,0.3,9.2,6.2,15.3c4.7,4.9,9.6,5.4,12.2,5.2v5c0,6.2-5,11.2-11.2,11.2H145
		c-6,0-10.8-4.7-11.2-10.5l0.1,0.1c1.1,0.2,4.6,0.6,8-2.9c3.4-3.5,3.6-7.6,3.6-8.9l-0.1,0c-1.3-0.1-5.5,0.1-9,3.5
		c-1.6,1.6-2.4,3.2-2.7,4.5v-10.2c0.3,0.1,0.7,0.2,1.1,0.2c9.4,0,17.1-7.7,17.1-17.1V91.5c1.5,0.1,4.4-0.1,7.3-3
		c3.4-3.5,3.6-7.6,3.6-8.9l0,0c-1.3-0.1-5.5,0.1-9,3.5c-0.8,0.8-1.4,1.6-1.8,2.3V59.3c1.6,0.3,6.4,0.8,11-4.1c4.7-4.9,5-10.6,5-12.3
		l-0.1-0.1c-1.7-0.1-7.6,0.1-12.5,4.8c-1.9,1.8-2.9,3.6-3.5,5.3V36.8c0-1.6-1.3-3-3-3c-1.1,0-2.1,0.7-2.6,1.6
		c-0.5-2.5-1.9-5.4-4.8-8.2c-6.1-5.9-13.3-6.1-15.5-6l-0.1,0.1c0,2.2,0.3,9.2,6.2,15.3c5.9,6.1,11.9,5.4,13.8,5l0,0v21.9
		c-0.6-1.4-1.6-2.9-3.1-4.4c-4.9-4.7-10.7-4.9-12.5-4.8l-0.1,0.1c0,1.7,0.3,7.4,5,12.3c4.4,4.5,8.8,4.4,10.7,4.1v35.8
		c0,6.2-5,11.2-11.2,11.2c-0.4,0-0.7,0.1-1.1,0.2v-5c0,0,0,0,0-0.1v-8.8l0,0c1,0.2,4.1,0.6,7.2-2.6c3.1-3.2,3.2-6.9,3.2-8l0,0
		c-1.1,0-4.9,0.1-8.1,3.1c-1.3,1.3-2,2.5-2.3,3.7v-18c0-9.4-7.7-17.1-17.1-17.1h-3.1c-0.1-1.6-0.7-3.9-2.9-6.1
		c-3.5-3.4-7.6-3.5-8.8-3.4l0,0c0,1.2,0.2,5.3,3.5,8.7c0.2,0.3,0.5,0.5,0.7,0.7h-9.9c-0.5-2.5-1.8-5.6-4.9-8.6
		c-6.1-5.9-13.3-6.1-15.5-6l-0.1,0.1c0,2.1,0.3,9.2,6.2,15.3c5.5,5.7,11.2,5.5,13.4,5.1h21.4c6.2,0,11.2,5,11.2,11.2v8.4
		c-0.7-2.1-2-4.4-4.3-6.6c-6.1-5.9-13.3-6.1-15.5-6l-0.1,0.1c0,2.2,0.3,9.2,6.2,15.3c5.8,6,11.8,5.4,13.7,5v28.4c0,0,0,0,0,0v9.3
		c-0.6-1.3-1.6-2.8-3-4.2c-4.9-4.7-10.7-4.9-12.5-4.8l-0.1,0.1c0,1.7,0.3,7.4,5,12.3c4.3,4.4,8.7,4.4,10.6,4.1v6.8
		c0,6.2-5,11.2-11.2,11.2h-10.4c2.6-3,4.2-6.9,4.2-11.2V114c1.4,0.2,4.4,0.1,7.3-2.9c3.3-3.4,3.5-7.4,3.5-8.6l0,0
		c-1.2,0-5.3,0.1-8.7,3.4c-1,0.9-1.6,1.9-2,2.8V103c0-9.1-7.2-16.6-16.2-17.1c-0.4-1-1.1-2-2.2-3c-3.5-3.4-7.6-3.5-8.8-3.4l0,0
		c0,1.2,0.2,5.3,3.5,8.7c1.6,1.7,3.3,2.5,4.7,2.8c0.5,0.4,1.2,0.7,1.9,0.7c6.2,0,11.2,5,11.2,11.2v16.4c-0.6-1.3-1.6-2.6-2.9-4
		c-4.9-4.7-10.7-4.9-12.5-4.8l-0.1,0.1c0,1.7,0.3,7.4,5,12.3c4.2,4.4,8.5,4.4,10.5,4.2V144c-0.7-1.9-1.8-3.9-3.9-5.9
		c-5.5-5.4-12.1-5.5-14.1-5.5l-0.1,0.1c0,2,0.3,8.4,5.6,13.9c5.2,5.4,10.6,5,12.4,4.6c-0.2,6-5.1,10.9-11.2,10.9h-9.8H70.3v-4.7
		c1.5,0.2,5.2,0.3,8.8-3.4c3.9-4,4.1-8.8,4.1-10.2l-0.1-0.1c-1.4-0.1-6.3,0.1-10.3,4c-1.2,1.2-2.1,2.4-2.6,3.6V127
		c1.4,0.2,4.4,0.1,7.3-2.9c3.3-3.4,3.5-7.4,3.5-8.6l0,0c-1.2-0.1-5.3,0.1-8.7,3.4c-0.9,0.9-1.6,1.8-2,2.7
		c0.3-5.9,5.2-10.7,11.2-10.7c1.6,0,3-1.3,3-3s-1.3-3-3-3c-9.4,0-17.1,7.7-17.1,17.1v9.4c-0.4-1-1.1-2-2.1-3
		c-3.2-3.1-7.1-3.2-8.2-3.2l0,0c0,1.1,0.2,4.9,3.3,8.1c2.9,3,5.9,2.9,7.1,2.7v25.9h-4.5c-5.4,0-9.8-3.8-11-8.8l0.1,0.1
		c1.2,0.3,5.3,0.7,9.2-3.4c3.9-4,4.1-8.8,4.1-10.2l0-0.1c-1.5-0.1-6.3,0.1-10.3,4c-2.2,2.1-3.1,4.4-3.3,6.1v-36.3
		c0,0.2,0.1,0.4,0.1,0.5l0.3,0.3c1.5,0.3,6.4,0.9,11.1-4c4.7-4.9,5-10.6,5-12.3L65.1,98c-1.7-0.1-7.6,0.1-12.5,4.8
		c-2.6,2.5-3.6,5.1-4,7.2v-22c0-1.6-1.3-3-3-3c-1.6,0-3,1.3-3,3v37.6c-0.8-1.8-2-3.6-3.9-5.5c-6.1-5.9-13.3-6.1-15.5-6l-0.1,0.1
		c0,2.2,0.3,9.2,6.2,15.3c5.4,5.6,11,5.5,13.3,5.1v16.2c0,4.3,1.6,8.2,4.2,11.2H33c-5.1,0-9.4-3.4-10.8-8.1c2,0.2,6.2,0.1,10.3-4.2
		c4.7-4.9,5-10.6,5-12.3l-0.1-0.1c-1.8-0.1-7.6,0.1-12.5,4.8c-2.4,2.3-3.5,4.8-3.9,6.8c-0.5-0.7-1.4-1.1-2.3-1.1
		c-0.5,0-0.9,0.1-1.3,0.3c-0.3-1.3-1-2.9-2.6-4.4c-3.2-3.1-7.1-3.2-8.2-3.2l0,0c0,1.1,0.2,4.9,3.3,8.1c2.2,2.3,4.5,2.8,6,2.8
		c0.4,9.1,7.9,16.4,17.1,16.4h26.9h4.5v1.9c0,0.6,0,1.1,0.1,1.7c-2.8-1.8-5.6-1.9-6.5-1.8l0,0c0,1.1,0.2,4.9,3.3,8.1
		c2.8,2.9,5.8,2.9,7,2.7c2.7,3.4,6.7,5.7,11.3,6.2c-1.5,0.3-3.4,1.2-5.2,3.1c-3.7,3.8-3.9,8.2-3.9,9.6l0,0.1
		c1.4,0.1,5.9-0.1,9.7-3.8c3.8-3.7,3.3-7.6,3-8.8l0,0h18.5c-0.9,0.4-1.8,1.1-2.8,2c-3.1,3.2-3.3,7-3.3,8.1l0,0c1.2,0,5-0.1,8.2-3.2
		c2.8-2.7,2.8-5.6,2.6-6.9c5.7,0.6,10.1,5.4,10.1,11.2V216c0,6.2-5,11.2-11.2,11.2c-1.6,0-3,1.3-3,3s1.3,3,3,3
		c9.4,0,17.1-7.7,17.1-17.1v-17.7c0-2.6-0.6-5.1-1.6-7.3c7.5-1.8,13.1-8.6,13.1-16.6v-4.8C135.4,169.6,138.1,169.3,140.8,166.5z
		 M116.7,185.6c-3-2.7-7.1-4.4-11.5-4.4h-0.1c0,0,0,0,0,0H87.6c0.8-0.4,1.7-1,2.5-1.9c3.1-3.2,3.2-6.9,3.2-8l0,0
		c-1.1-0.1-4.9,0.1-8.1,3.1c-2.8,2.7-2.8,5.4-2.6,6.8h-1.1c-6.2,0-11.2-5-11.2-11.2V168h13.2h9.8h23.3c4.3,0,8.2-1.6,11.2-4.2v10.6
		C127.9,180.5,122.9,185.5,116.7,185.6z"/>
	<path class="st0" d="M152.3,36.8c1,0.2,4.1,0.6,7.2-2.6c3.1-3.2,3.2-6.9,3.2-8l0,0c-1.1,0-4.9,0.1-8.1,3.1
		c-3.2,3.1-2.7,6.3-2.5,7.3L152.3,36.8z"/>
	<path class="st0" d="M247.8,136.4L247.8,136.4c-1.3-0.1-5.5,0-9.1,3.5c-0.5,0.5-1,1-1.3,1.5c-0.4-1.1-1.5-1.9-2.7-1.9
		c-1.6,0-3,1.3-3,3v17.1c-0.6-1.5-1.6-3-3.2-4.6c-4.9-4.7-10.6-4.9-12.4-4.8l-0.1,0.1c0,1.7,0.3,7.4,4.9,12.2
		c4.4,4.5,8.9,4.4,10.7,4.1c-0.3,6-5.2,10.7-11.2,10.7h-27.3c1-0.6,2-1.4,3-2.4c4.4-4.6,4.7-9.9,4.7-11.5l-0.1-0.1
		c-1.6-0.1-7.1,0.1-11.7,4.5c-3.7,3.6-4,7.4-3.8,9.5h-12.7c-5.8,0-10.6-4.4-11.2-10h19.1c0.9,0,1.6-0.4,2.2-0.9
		c1.4-0.1,3.3-0.7,5.1-2.6c2.9-3,3.1-6.6,3.1-7.7l0,0c-1.1,0-4.7,0.1-7.8,3c-0.9,0.8-1.4,1.7-1.8,2.5c-0.2-0.1-0.5-0.1-0.8-0.1
		h-23.6c-9.4,0-17.1,7.7-17.1,17.1V216c0,9.4,7.7,17.1,17.1,17.1c1.6,0,3-1.3,3-3s-1.3-3-3-3c-6.2,0-11.2-5-11.2-11.2v-19.2
		c1,0.1,2.9-0.1,4.8-2c2.3-2.3,2.4-5,2.4-5.9l0,0c-0.8,0-3.6,0-6,2.3c-0.5,0.5-0.9,1-1.2,1.5v-7.4c1.4,0.1,3.7-0.3,5.9-2.6
		c2.9-3,3.1-6.6,3.1-7.7l0,0c-1.1,0-4.7,0.1-7.8,3c-0.5,0.5-0.9,0.9-1.2,1.4v-1c0-5.7,4.3-10.4,9.8-11.1c0.7,8.9,8.1,15.8,17.1,15.8
		h25.7c-0.2,1.9-0.2,5.9,3.9,9.8c4.6,4.4,9.9,4.7,11.5,4.7l0.1-0.1c0.1-1.6-0.1-7.1-4.5-11.7c-1.2-1.3-2.4-2.1-3.6-2.7h14.8
		c9.4,0,17.1-7.7,17.1-17.1v-17.7c1.6,0,4.1-0.5,6.6-3.1C247.6,141.8,247.8,137.6,247.8,136.4z"/>
</g>
<g>
</g>
<g>
</g>
<g>
</g>
<g>
</g>
<g>
</g>
<g>
</g>
<g>
</g>
<g>
</g>
<g>
</g>
<g>
</g>
<g>
</g>
<g>
</g>
<g>
</g>
<g>
</g>
<g>
</g>
</svg>
